<svg width="50" height="50" viewBox="0 0 50 50" fill="none" xmlns="http://www.w3.org/2000/svg">
<path fill-rule="evenodd" clip-rule="evenodd" d="M15.7878 5.9599C10.0188 7.27468 5.729 12.3483 5.729 18.4197C5.729 19.2674 5.02945 19.9546 4.1665 19.9546C3.30356 19.9546 2.604 19.2674 2.604 18.4197C2.604 9.65164 9.82439 2.55859 18.7498 2.55859C19.3128 2.55859 19.8322 2.85605 20.1095 3.33727C20.3869 3.81849 20.3793 4.40906 20.0897 4.88325L17.9022 8.46479C17.4582 9.19171 16.4984 9.42743 15.7585 8.99128C15.0185 8.55513 14.7785 7.61228 15.2225 6.88536L15.7878 5.9599ZM45.8332 29.1643C46.6961 29.1643 47.3957 29.8515 47.3957 30.6992C47.3957 39.4673 40.1753 46.5603 31.2498 46.5603C30.6869 46.5603 30.1675 46.2628 29.8902 45.7816C29.6128 45.3004 29.6204 44.7098 29.91 44.2356L32.0975 40.6541C32.5415 39.9272 33.5012 39.6915 34.2412 40.1276C34.9812 40.5638 35.2211 41.5066 34.7772 42.2335L34.2119 43.159C39.9809 41.8442 44.2707 36.7706 44.2707 30.6992C44.2707 29.8515 44.9702 29.1643 45.8332 29.1643Z" fill="#3F8FD2"/>
<path d="M34.1666 16.8021L26.3333 12.6475C25.5 12.2177 24.5208 12.2177 23.6875 12.6475L15.8541 16.8021C15.2916 17.1091 14.9375 17.7026 14.9375 18.378C14.9375 19.0534 15.2916 19.6469 15.8541 19.9539L23.6875 24.1084C24.1041 24.3336 24.5625 24.4359 25.0208 24.4359C25.4792 24.4359 25.9375 24.3336 26.3541 24.1084L34.1875 19.9539C34.75 19.6469 35.1042 19.0534 35.1042 18.378C35.0833 17.7026 34.7291 17.1091 34.1666 16.8021Z" fill="#3F8FD2"/>
<path opacity="0.4" d="M22.3748 25.5207L15.0832 21.9392C14.5207 21.6731 13.8748 21.6936 13.3332 22.021C12.7915 22.3485 12.479 22.901 12.479 23.515V30.2892C12.479 31.4558 13.1457 32.52 14.2082 33.0317L21.4999 36.6132C21.7499 36.736 22.0207 36.7974 22.3123 36.7974C22.6457 36.7974 22.9582 36.7155 23.2499 36.5313C23.7915 36.2039 24.104 35.6513 24.104 35.0373V28.2631C24.104 27.0966 23.4582 26.0528 22.3748 25.5207Z" fill="#3F8FD2"/>
<path opacity="0.4" d="M36.6458 22.021C36.1041 21.6936 35.4583 21.6731 34.8958 21.9392L27.6041 25.5207C26.5416 26.0528 25.875 27.0966 25.875 28.2631V35.0373C25.875 35.6513 26.1874 36.2039 26.7291 36.5313C27.0208 36.7155 27.3333 36.7974 27.6666 36.7974C27.9375 36.7974 28.2083 36.736 28.4792 36.6132L35.7708 33.0317C36.8333 32.4996 37.5 31.4558 37.5 30.2892V23.515C37.5 22.901 37.1875 22.3485 36.6458 22.021Z" fill="#3F8FD2"/>
</svg>
