<svg width="50" height="50" viewBox="0 0 50 50" fill="none" xmlns="http://www.w3.org/2000/svg">
<path opacity="0.4" d="M45.8332 18.75V34.2917C45.8332 39.0625 41.9582 42.9167 37.1873 42.9167H12.8123C8.0415 42.9167 4.1665 39.0625 4.1665 34.2917V18.75H45.8332Z" fill="#3F8FD2"/>
<path d="M45.8332 15.708V18.7497H4.1665V15.708C4.1665 10.9372 8.0415 7.08301 12.8123 7.08301H37.1873C41.9582 7.08301 45.8332 10.9372 45.8332 15.708Z" fill="#3F8FD2"/>
<path d="M16.6667 35.9375H12.5C11.6458 35.9375 10.9375 35.2292 10.9375 34.375C10.9375 33.5208 11.6458 32.8125 12.5 32.8125H16.6667C17.5208 32.8125 18.2292 33.5208 18.2292 34.375C18.2292 35.2292 17.5208 35.9375 16.6667 35.9375Z" fill="#3F8FD2"/>
<path d="M30.2083 35.9375H21.875C21.0208 35.9375 20.3125 35.2292 20.3125 34.375C20.3125 33.5208 21.0208 32.8125 21.875 32.8125H30.2083C31.0625 32.8125 31.7708 33.5208 31.7708 34.375C31.7708 35.2292 31.0625 35.9375 30.2083 35.9375Z" fill="#3F8FD2"/>
</svg>
