<svg width="18" height="17" viewBox="0 0 18 17" fill="none" xmlns="http://www.w3.org/2000/svg">
<g clip-path="url(#clip0_1416_321)">
<path d="M0.980455 9.09334L3.61077 10.8296L2.61184 13.6257C2.45041 14.0594 2.44837 14.5286 2.60601 14.9634C2.76366 15.3982 3.07255 15.7753 3.48665 16.0385C3.89365 16.3101 4.38686 16.4557 4.8928 16.4534C5.39874 16.4511 5.89032 16.3011 6.29429 16.0258L8.86624 14.3149L11.4389 16.0238C11.8452 16.2939 12.3357 16.4406 12.8401 16.4428C13.3444 16.445 13.8365 16.3027 14.2457 16.0362C14.6548 15.7697 14.9599 15.3928 15.1172 14.9596C15.2744 14.5265 15.2756 14.0595 15.1206 13.6257L14.1217 10.8296L16.752 9.09334C17.1578 8.82522 17.4594 8.44808 17.6138 8.01577C17.7682 7.58346 17.7675 7.1181 17.6118 6.68617C17.4561 6.25424 17.1534 5.87782 16.7469 5.61068C16.3403 5.34355 15.8508 5.19936 15.3482 5.19871H12.1172L11.1367 2.43668C10.9826 2.00191 10.6796 1.62263 10.2715 1.35354C9.86345 1.08445 9.37137 0.939453 8.86624 0.939453C8.36111 0.939453 7.86903 1.08445 7.46096 1.35354C7.05289 1.62263 6.74992 2.00191 6.59574 2.43668L5.61528 5.19871H2.38723C1.88462 5.19936 1.39509 5.34355 0.988567 5.61068C0.582042 5.87782 0.279313 6.25424 0.123622 6.68617C-0.0320684 7.1181 -0.0327575 7.58346 0.121653 8.01577C0.276064 8.44808 0.577677 8.82522 0.98341 9.09334H0.980455Z" fill="#FFCC00"/>
</g>
<defs>
<clipPath id="clip0_1416_321">
<rect width="17.7325" height="16.0273" fill="white" transform="translate(0 0.8125)"/>
</clipPath>
</defs>
</svg>
