<svg width="50" height="50" viewBox="0 0 50 50" fill="none" xmlns="http://www.w3.org/2000/svg">
<path opacity="0.4" d="M45.8332 29.166V35.416C45.8332 38.8743 43.0415 41.666 39.5832 41.666H37.4998C37.4998 39.3743 35.6248 37.4993 33.3332 37.4993C31.0415 37.4993 29.1665 39.3743 29.1665 41.666H20.8332C20.8332 39.3743 18.9582 37.4993 16.6665 37.4993C14.3748 37.4993 12.4998 39.3743 12.4998 41.666H10.4165C6.95817 41.666 4.1665 38.8743 4.1665 35.416V29.166H27.0832C29.3748 29.166 31.2498 27.291 31.2498 24.9993V10.416H35.0832C36.5832 10.416 37.9582 11.2285 38.7082 12.5202L42.2706 18.7493H39.5832C38.4373 18.7493 37.4998 19.6868 37.4998 20.8327V27.0827C37.4998 28.2285 38.4373 29.166 39.5832 29.166H45.8332Z" fill="#3F8FD2"/>
<path d="M16.6667 45.8333C18.9679 45.8333 20.8333 43.9679 20.8333 41.6667C20.8333 39.3655 18.9679 37.5 16.6667 37.5C14.3655 37.5 12.5 39.3655 12.5 41.6667C12.5 43.9679 14.3655 45.8333 16.6667 45.8333Z" fill="#3F8FD2"/>
<path d="M33.3332 45.8333C35.6344 45.8333 37.4998 43.9679 37.4998 41.6667C37.4998 39.3655 35.6344 37.5 33.3332 37.5C31.032 37.5 29.1665 39.3655 29.1665 41.6667C29.1665 43.9679 31.032 45.8333 33.3332 45.8333Z" fill="#3F8FD2"/>
<path d="M45.8333 26.1042V29.1667H39.5833C38.4375 29.1667 37.5 28.2292 37.5 27.0833V20.8333C37.5 19.6875 38.4375 18.75 39.5833 18.75H42.2708L45.2916 24.0416C45.6458 24.6666 45.8333 25.3751 45.8333 26.1042Z" fill="#3F8FD2"/>
<path d="M29.167 4.16602H12.5003C8.43782 4.16602 5.06286 7.08268 4.33369 10.9368H14.5837C15.4378 10.9368 16.1462 11.6452 16.1462 12.4993C16.1462 13.3535 15.4378 14.0618 14.5837 14.0618H4.16699V17.1868H10.417C11.2712 17.1868 11.9795 17.8952 11.9795 18.7493C11.9795 19.6035 11.2712 20.3118 10.417 20.3118H4.16699V23.4368H6.25033C7.10449 23.4368 7.81282 24.1452 7.81282 24.9993C7.81282 25.8535 7.10449 26.5618 6.25033 26.5618H4.16699V29.166H27.0837C29.3753 29.166 31.2503 27.291 31.2503 24.9993V6.24935C31.2503 5.10352 30.3128 4.16602 29.167 4.16602Z" fill="#3F8FD2"/>
<path d="M4.33353 10.9375H2.0835C1.22933 10.9375 0.520996 11.6458 0.520996 12.5C0.520996 13.3542 1.22933 14.0625 2.0835 14.0625H4.16683V12.5C4.16683 11.9583 4.22936 11.4375 4.33353 10.9375Z" fill="#3F8FD2"/>
<path d="M2.0835 17.1875C1.22933 17.1875 0.520996 17.8958 0.520996 18.75C0.520996 19.6042 1.22933 20.3125 2.0835 20.3125H4.16683V17.1875H2.0835Z" fill="#3F8FD2"/>
<path d="M2.0835 23.4375C1.22933 23.4375 0.520996 24.1458 0.520996 25C0.520996 25.8542 1.22933 26.5625 2.0835 26.5625H4.16683V23.4375H2.0835Z" fill="#3F8FD2"/>
</svg>
