<svg width="20" height="20" viewBox="0 0 20 20" fill="none" xmlns="http://www.w3.org/2000/svg">
<path d="M4.43031 11.6357L5.39941 11.0948C6.27398 10.6067 7.42127 10.8027 8.19 11.5714C8.19 11.5714 9.12245 12.5038 10.8131 10.8132C12.5037 9.12264 11.5712 8.19016 11.5712 8.19016C10.8025 7.42143 10.6066 6.27414 11.0947 5.39958L11.6355 4.43047C12.3725 3.10986 14.2245 2.95389 15.3853 4.11468C16.0828 4.81219 16.6256 5.66666 16.6614 6.61123C16.7216 8.20135 16.3192 10.9018 13.6104 13.6106C10.9016 16.3194 8.20118 16.7218 6.61107 16.6615C5.6665 16.6257 4.81203 16.083 4.11452 15.3855C2.95373 14.2247 3.10969 12.3727 4.43031 11.6357Z" fill="#374957"/>
</svg>
