<svg width="50" height="50" viewBox="0 0 50 50" fill="none" xmlns="http://www.w3.org/2000/svg">
<path opacity="0.4" d="M22.8335 4.29139L11.3752 8.58305C9.18766 9.41639 7.396 11.9997 7.396 14.3539V31.2289C7.396 32.9164 8.50016 35.1456 9.85433 36.1456L21.3127 44.7081C23.3335 46.2289 26.646 46.2289 28.6668 44.7081L40.1252 36.1456C41.4793 35.1247 42.5835 32.9164 42.5835 31.2289V14.3539C42.5835 12.0206 40.7918 9.41639 38.6043 8.60389L27.146 4.31222C25.9793 3.85389 24.021 3.85389 22.8335 4.29139Z" fill="#3F8FD2"/>
<path d="M22.2083 29.6455C21.8125 29.6455 21.4167 29.4997 21.1042 29.1872L17.75 25.833C17.1458 25.2288 17.1458 24.2288 17.75 23.6247C18.3542 23.0205 19.3542 23.0205 19.9583 23.6247L22.2083 25.8747L30.0625 18.0205C30.6667 17.4163 31.6667 17.4163 32.2708 18.0205C32.875 18.6247 32.875 19.6247 32.2708 20.2288L23.3125 29.1872C23 29.4997 22.6042 29.6455 22.2083 29.6455Z" fill="#3F8FD2"/>
</svg>
